<svg viewBox="0 0 256 256" fill="none" xmlns="http://www.w3.org/2000/svg">
  <path d="M72.4 131.8c0 4.6.5 8.3 1.4 11 1 2.8 2.3 5.8 4.1 9.1.6 1.1.9 2.2.9 3.2 0 1.4-.8 2.8-2.5 4.1l-8.4 5.6c-1.2.8-2.4 1.2-3.4 1.2-1.3 0-2.7-.7-4-2-1.8-2-3.4-4.1-4.7-6.2-1.3-2.2-2.7-4.6-4.1-7.5-10.4 12.2-23.4 18.3-39.2 18.3-11.2 0-20.1-3.2-26.6-9.6-6.5-6.4-9.8-14.9-9.8-25.6 0-11.3 4-20.5 12-27.4 8-6.9 18.7-10.4 32.2-10.4 4.5 0 9.1.4 13.9 1.1 4.8.7 9.8 1.8 15 3.3v-9.7c0-10.1-2.1-17.2-6.3-21.4-4.2-4.2-11.3-6.2-21.4-6.2-4.6 0-9.3.6-14.2 1.7-4.9 1.1-9.6 2.7-14.2 4.6-2.1.9-3.7 1.4-4.6 1.7-.9.3-1.6.4-2.1.4-1.8 0-2.8-1.3-2.8-4V61c0-2.1.2-3.6.8-4.6.5-1 1.6-1.9 3.1-2.7 4.6-2.4 10.1-4.3 16.6-5.9 6.5-1.6 13.4-2.5 20.6-2.5 15.7 0 27.2 3.6 34.6 10.7 7.3 7.1 11 17.9 11 32.5v42.8h.1zM38.8 152.1c4.3 0 8.8-0.8 13.5-2.4 4.7-1.6 8.8-4.5 12.2-8.4 2.1-2.4 3.6-5.1 4.3-8.2.8-3.1 1.2-6.8 1.2-11.2v-5.4c-3.8-1.2-7.8-2.1-12-2.7-4.2-.6-8.3-.9-12.4-.9-8.8 0-15.3 1.7-19.6 5.2-4.3 3.5-6.4 8.4-6.4 14.9 0 6.1 1.6 10.6 4.8 13.8 3.1 3.2 7.6 4.8 13.3 4.8l1.1.5zM114 166.3c-2.4 0-4-.4-5-1.3-1-0.8-1.9-2.7-2.6-5.1l-29-95.4c-.7-2.5-1.1-4.1-1.1-5 0-2 1-3.1 3-3.1h13.1c2.5 0 4.2.4 5.1 1.3.9.8 1.7 2.7 2.5 5.1l20.7 81.6 19.2-81.6c.6-2.5 1.4-4.3 2.4-5.1 1-.8 2.8-1.3 5.2-1.3h10.7c2.5 0 4.2.4 5.2 1.3 1 .8 1.9 2.7 2.4 5.1l19.4 82.6 21.3-82.6c.7-2.5 1.6-4.3 2.5-5.1 1-.8 2.7-1.3 5.1-1.3H224c2 0 3.1 1 3.1 3.1 0 .6-.1 1.2-.2 2-.2.7-.4 1.7-.9 3l-29.7 95.4c-.7 2.5-1.6 4.3-2.6 5.1-1 .8-2.7 1.3-4.9 1.3h-11.5c-2.5 0-4.2-.4-5.2-1.3-1-.9-1.9-2.7-2.4-5.2L151.3 85l-18.9 80c-.6 2.5-1.4 4.3-2.4 5.2-1 .9-2.8 1.3-5.2 1.3H114v-.2zM233.3 170.8c-6.8 0-13.5-0.8-20.1-2.4-6.5-1.6-11.6-3.4-15.1-5.4-2.1-1.2-3.6-2.5-4.1-3.8-.5-1.2-.8-2.6-.8-3.8v-5.6c0-2.7 1-4 2.9-4 .8 0 1.5.1 2.3.4.8.2 1.9.7 3.1 1.2 4.2 1.9 8.8 3.4 13.7 4.4 5 1 9.9 1.5 14.9 1.5 7.9 0 14-1.3 18.3-3.9 4.3-2.7 6.5-6.6 6.5-11.6 0-3.4-1.1-6.3-3.3-8.6-2.2-2.4-6.3-4.5-12.3-6.5l-17.6-5.5c-8.9-2.8-15.4-7-19.4-12.5-4-5.4-6-11.4-6-17.8 0-5.2 1.1-9.8 3.4-13.8 2.3-4 5.3-7.5 9.1-10.3 3.8-2.9 8.1-5.1 13-6.6 4.9-1.5 10-2.3 15.5-2.3 2.7 0 5.5.2 8.2.5 2.8.4 5.4.9 7.9 1.4 2.4.6 4.7 1.2 6.8 1.9 2.1.7 3.8 1.4 4.9 2.1 1.5.9 2.7 1.8 3.4 2.8.7.9 1 2.1 1 3.7v5.2c0 2.7-1 4.1-2.9 4.1-1 0-2.6-.5-4.7-1.5-7.1-3.2-15-4.8-23.8-4.8-7.2 0-12.8 1.1-16.8 3.5-3.9 2.3-5.9 5.9-5.9 10.8 0 3.4 1.2 6.3 3.5 8.7 2.4 2.4 6.8 4.8 13.2 6.9l17.3 5.5c8.8 2.8 15.1 6.7 18.9 11.8 3.8 5 5.6 10.7 5.6 17 0 5.3-1.1 10.2-3.2 14.5-2.2 4.3-5.1 8.1-8.9 11.2-3.8 3.2-8.3 5.6-13.6 7.2-5.5 1.9-11.3 2.8-17.6 2.8z" fill="black"/>
  <path d="M246.5 197.3c-32.1 23.7-78.7 36.3-118.8 36.3-56.2 0-106.8-20.8-145.1-55.3-3-2.7-.3-6.4 3.3-4.3 41.3 24 92.4 38.5 145.2 38.5 35.6 0 74.7-7.4 110.8-22.6 5.4-2.4 10-2.5 4.6 7.4z" fill="black"/>
  <path d="M256 184.6c-4.1-5.3-27.2-2.5-37.6-1.3-3.2.4-3.6-2.4-.8-4.4 18.4-12.9 48.6-9.2 52.1-4.9 3.6 4.4-1 34.8-18.2 49.3-2.6 2.2-5.1 1-4-1.9 3.8-9.6 12.5-31.2 8.5-36.8z" fill="black"/>
</svg>
