<svg viewBox="0 0 24 24" fill="none" xmlns="http://www.w3.org/2000/svg">
  <path d="M12 0C5.373 0 0 5.373 0 12s5.373 12 12 12 12-5.373 12-12S18.627 0 12 0zm0 20.25c-4.556 0-8.25-3.694-8.25-8.25S7.444 3.75 12 3.75s8.25 3.694 8.25 8.25-3.694 8.25-8.25 8.25zm3.75-10.125a1.875 1.875 0 11-3.75 0 1.875 1.875 0 013.75 0zm0 3.75a1.875 1.875 0 11-3.75 0 1.875 1.875 0 013.75 0zm-3.75-3.75a1.875 1.875 0 11-3.75 0 1.875 1.875 0 013.75 0zm0 3.75a1.875 1.875 0 11-3.75 0 1.875 1.875 0 013.75 0z" fill="#F22F46"/>
</svg>
